<?xml version="1.0" encoding="UTF-8"?>
<!--
    Material "tune" icon (3 horizontal sliders + knobs).
    Used by the chat-page "image slice" settings entry.  Visually
    distinct from ic_settings (gear) and ic_delete (trash) so the three
    AppBar actions remain unambiguous at a glance.
-->
<svg xmlns="http://www.w3.org/2000/svg" width="24" height="24" viewBox="0 0 24 24" fill="#000000">
  <path d="M3,17v2h6v-2L3,17z M3,5v2h10L13,5L3,5z M13,21v-2h8v-2h-8v-2h-2v6h2z M7,9v2L3,11v2h4v2h2L9,9L7,9z M21,13v-2L11,11v2h10z M15,9h2L17,7h4L21,5h-4L17,3h-2v6z"/>
</svg>
